<svg width="800" height="800" viewBox="0 0 24 24" fill="none" xmlns="http://www.w3.org/2000/svg"><path d="m3 6 3.106-1.553a2 2 0 0 1 1.788 0l1.423.711a6 6 0 0 0 5.366 0l1.423-.71a2 2 0 0 1 1.788 0L21 6M3 10.5l3.106-1.553a2 2 0 0 1 1.788 0l1.423.711a6 6 0 0 0 5.366 0l1.423-.71a2 2 0 0 1 1.788 0L21 10.5M3 15l3.106-1.553a2 2 0 0 1 1.788 0l1.423.711a6 6 0 0 0 5.366 0l1.423-.71a2 2 0 0 1 1.788 0L21 15M3 19.5l3.106-1.553a2 2 0 0 1 1.788 0l1.423.711a6 6 0 0 0 5.366 0l1.423-.71a2 2 0 0 1 1.788 0L21 19.5" stroke="#ffe5ea" stroke-width="3" stroke-linecap="round" stroke-linejoin="round"/></svg>