<svg xmlns="http://www.w3.org/2000/svg" class="py-[5px] pl-[5px] pr-[3px] h-9" viewBox="0 0 479 439"><path fill="none" d="M363.1 334.53c-7.48 12.97-14.98 19.72-26.22 27.22-24.09 15.96-50.57 22.58-78.88 22.25-8.18.18-28.18-3.82-37.53-5.52-9.8-.96-19.14-.95-26.47-.06-17.81 2.59-55.4 13.63-71.4 31.38-1.49 1.38-2.18 2.53-3.05 4.2 11.99 6.05 24.53 11 37.45 14.71 16.02 4.6 38.41 9.09 55 9.29h17c31.28-.05 70.44-11.24 98-25.78 23.28-12.28 44.2-28.69 61.83-48.22 34.08-37.74 52.57-85.39 54.92-133.89-7.02 9.34-33.99 36.25-41.2 43.16-11.01 10.54-22.74 17.1-36.55 23.42-22.86 10.47-46.12 13.6-71 13.31-31.91-.55-73.72-19.88-109.75-27-13.36-2.64-28.31-2.56-38.25-.72-24.28 3.27-53.11 12.19-73 26.72-14.16 10.34-32.75 31.25-35.57 35.23 10.96 15.5 23.96 29.52 38.51 41.7 5.81-9.18 20.3-28.8 47.06-42.18 34.29-17.14 58-17.75 110.75-2 77.5 18 117-.25 128.35-7.22m20.9-93.14c-12.19 10.03-22.47 15.24-37 21.01-21.6 8.57-44.97 10.87-68 10.6l-9-.83c-12.59-1.26-24.9-3.35-37-7.2-36.39-11.58-55.88-20.35-72.27-19.33-44 6.54-90.07 28.58-117.92 63.36-5.59 6.98-9.54 13.75-12.77 21.17-1.04-.87-1.61-1.26-2.61-3.17C13.9 303.37.04 264.36 0 237v-36c.1-20.32 9.8-52.47 18.31-71C43.49 75.16 89.23 33.89 146 13.69c14.55-5.17 34.63-9.56 50-11.41l10-.86c22.9-2.78 56.79 2.2 79 8.58 16.07 4.61 30.96 10.75 45.09 18.5.2.17.25.22.32.45-10.4 27.13-34.06 49.41-59.41 62.29-24.22 12.31-50.92 19.97-78.14 22.76 21.33-.38 46.61 6.69 73.14 7 32.91.38 71.31-12.25 89.09-42.09 3.95-7.27 9.29-14.1 12.91-24.34 13.44 11.49 25.8 25.31 36.04 39.69.25.5.47.9.46 1.49-4.38 16.55-31.91 42.68-45.5 52.61-26.4 19.28-60.06 25.01-92 24.64-2.25-.03-2.19-.06-4.55-.04-7.83.04-15-.32-21.45.46-18.39 2.63-29.78 3.21-47 12.36-4.43 2.36-9.25 5.89-12.77 10.17 4.1 2.05 75.15 28.43 118.65 24.43 15.58-2.24 31.02-6.08 45.12-13.14 7.66-3.83 15.36-11.6 21.37-17.84 3.9-3.85 11.78-10.74 25.63-21.27 15.18-11.54 33.46-19.63 52.12-25.01 8.07-1.84 15.07-.09 19.09 1.32 4.63 1.61 8.64 4.73 11.65 9.56 8.2 13.16-.09 30.28-14.86 33.48-29.33 6.52-50.03 32.53-76 53.91" style="fill:#e5e5e5;fill-opacity:1"/><path fill="none" d="M160.73 245.64c3.78-.24 7.72.05 12 .77-6.11-1.85-6-2.41-18.21-4.98-12.24-1.52-31.78-2.38-41.52-1.1-27.25 3.59-50.81 10.19-74 25.37-10.13 6.62-19.74 15.07-24.96 25.78-.87 1.52-1.17 1.91-1.48 3.2 4.48 12.01 9.7 23.29 14.87 32.32 1 1.91 1.57 2.3 2.61 3.17 3.23-7.42 7.18-14.19 12.77-21.17 27.85-34.78 73.92-56.82 117.92-63.36M34.49 211.5c2.3-19.4 7.47-37.68 16.88-56.5C72.94 111.86 111.7 78.83 157 62.69c20.02-7.13 33.49-7.43 53.91-10.33 26.36-1.45 25.27-.54 49.72-1.39 17.07-1.75 32.97-2.99 47.73-8.97 6.52-2.54 13.86-8.21 20.3-11.87.82-.52 1.53-1 1.75-1.18-10.4 27.13-34.06 49.41-59.41 62.29-24.22 12.31-50.92 19.97-78.14 22.76-10.61.5-20.86.5-34.86 4-27.94 6.75-57.36 19.67-75.1 43-9.13 12-19.93 25.27-31.26 41.27-7.28 5.09-12.19 6.55-17.15 9.23m146.74-15.55c3.52-4.28 8.34-7.81 12.77-10.17 17.22-9.15 28.61-9.73 47-12.36 6.45-.78 13.62-.42 21.45-.46 2.36-.02 8.05.54 2.05-1.34-21-7.62-37.59-11.52-58.5-11.41h-22l-16 2.06c-16.44 2.42-36.15 8.16-50 17.48-4.04 2.72-7.93 6.04-11.05 9.89 9.43-.89 46.55-3.64 74.28 6.31" style="fill:#a8a29e;fill-opacity:1"/></svg>